<svg xmlns="http://www.w3.org/2000/svg" xmlns:svg="http://www.w3.org/2000/svg" id="Layer_1" x="0" y="0" version="1.1" viewBox="0 0 2115 522" style="enable-background:new 0 0 2115 522" xml:space="preserve"><metadata id="metadata39"/><style id="style2" type="text/css">.st0{fill:#f55215}.st1{fill:none}</style><g id="Brandmark" transform="matrix(1.135953,0,0,1.135953,-143.62619,-49.259119)"><circle id="ellipse4" cx="1057.7" cy="284.9" r="77.9" class="st0" transform="matrix(0.7071,-0.7071,0.7071,0.7071,108.3231,831.375)" style="fill:#f55215"/><g id="g26"><path id="path6" d="m 1956.9,282.4 c 0,-13.4 -2.9,-26 -9.2,-37.6 -6.3,-11.6 -14.3,-20.8 -25.6,-27.6 -11.3,-6.8 -23.7,-10.2 -38,-10.2 -14.3,0 -27.5,3.5 -39.1,10.4 -11.6,7 -20.7,16.4 -27.2,28.4 -6.6,12 -9.9,25 -9.9,39.1 0,14.1 3.3,27.2 9.9,39.1 6.6,11.9 15.7,21.3 27.3,28.3 11.6,7 24.7,10.5 39,10.5 11.7,0 22.3,-2.3 32.1,-6.9 9.7,-4.6 17.7,-10.8 24.3,-18.5 6.6,-7.7 10.3,-14.5 12.8,-23.6 l -35.3,0.7 c -1.8,3 -4.6,6.6 -7.4,8.8 -3.3,2.6 -7.2,5 -11.9,6.4 -4.5,1.3 -9.4,2.3 -15.2,2.3 -7.7,0 -14.7,-1.9 -21,-5.7 -6.3,-3.8 -11.3,-9.3 -14.9,-16.5 -2.4,-4.7 -4,-9.9 -4.8,-15.7 h 113.9 c 0.2,-3.5 0.3,-8.3 0.2,-11.7 z m -112.8,-15 c 0.9,-3.3 2.1,-6.4 3.7,-9.1 3.9,-7.1 9,-12.3 15.3,-15.8 6.3,-3.5 13.3,-5.2 20.9,-5.2 6.6,0 12.8,1.4 18.6,4.1 5.8,2.7 10.5,6.4 14.1,11 3.6,4.6 5.6,9.7 6.1,15.1 z"/><path id="path8" d="m 1620,362.9 c -13,0 -24.7,-3.5 -35.3,-10.4 -10.6,-7 -18.9,-16.4 -24.9,-28.2 -6,-11.8 -9,-25 -9,-39.3 0,-14.3 3,-27.3 9.1,-39.2 6.1,-11.9 14.3,-21.4 24.9,-28.3 10.5,-7 22.2,-10.4 35.1,-10.4 8,0 15.4,1.2 22.3,3.6 6.9,2.4 14.3,7.2 19.5,11.6 5.1,4.3 9.4,10.2 11.2,18.9 v -29.7 h 32.9 v 147 h -32.9 v -26.2 c -3.4,7.6 -5.9,11.8 -12.6,17.2 -5.7,4.6 -11.3,7.7 -18.2,10 -6.8,2.2 -14.2,3.4 -22.1,3.4 z m 8.3,-32.1 c 8,0 15.3,-2 21.9,-6 6.6,-4 11.8,-9.5 15.6,-16.6 3.8,-7 5.7,-14.8 5.7,-23.3 0,-8.5 -1.9,-16.1 -5.7,-23.1 -3.8,-7 -9,-12.6 -15.7,-16.7 -6.6,-4.1 -13.9,-6.1 -21.8,-6.1 -7.9,0 -15.2,1.9 -21.7,5.8 -6.5,3.9 -11.8,9.2 -15.7,16.2 -3.9,6.9 -5.8,14.9 -5.8,24 0,9.1 1.9,17.4 5.8,24.3 3.9,6.9 9.1,12.3 15.7,16 6.6,3.7 13.9,5.5 21.7,5.5 z"/><path id="path10" d="m 1720,211.4 h 33.2 V 238 c 2.4,-5.5 5.5,-10.3 9.2,-14.2 3.8,-4 8.2,-7 13.3,-9.1 5.1,-2.1 10.8,-3.2 16.9,-3.2 h 15.7 v 29.8 h -13.9 c -7.9,0 -14.9,1.9 -20.9,5.7 -6,3.8 -10.7,9.4 -14,16.7 -3.3,7.3 -5,16.2 -5,26.5 v 68.4 H 1720 Z"/><path id="path12" d="m 1291.5,241 h 29.6 v -29.6 h -29.6 v -56 l -34.6,21.6 v 34.5 H 1201 v -21.1 c 0,-2.8 0.3,-4.5 1,-5.3 1,-1.2 3.5,-1.4 5.7,-1.4 h 22.9 l 0.2,-28.6 h -28.5 c -11.5,0 -20.4,2.8 -26.3,8.2 -5.8,5.4 -8.8,13.1 -8.8,23.2 l -0.2,25 h -29.7 V 241 h 29.6 V 358.4 H 1201 V 241 h 55.9 v 61.5 c 0,15 1.4,26.5 5.7,35 3.8,7.6 9.9,15.1 17.3,18.4 6.9,3.1 15.5,2.5 24.4,2.5 h 16.8 v -29.3 h -9.6 c -4.1,0 -7.7,-0.2 -10.8,-1.7 -3.1,-1.5 -5.6,-4.1 -7.6,-7.9 -2,-3.8 -1.5,-9 -1.5,-15.6 z"/><path id="path14" d="m 1332.8,211.4 h 37.2 l 28.8,93.1 2.6,8.9 h 0.4 l 2.7,-8.7 27.9,-93.2 h 25.6 l 26.9,92.2 3,9.7 h 0.4 l 3.4,-10.3 28.8,-91.7 h 36.5 l -49.6,147 h -32 l -30.6,-95.2 h -0.1 l -30.9,95.2 h -31.3 z"/><g id="g24"><path id="path16" d="m 394.8,362.9 c -13,0 -24.7,-3.5 -35.3,-10.4 -10.6,-7 -18.9,-16.4 -24.9,-28.2 -6,-11.8 -9,-25 -9,-39.3 0,-14.3 3,-27.3 9.1,-39.2 6,-11.9 14.4,-21.4 24.9,-28.3 10.5,-7 22.2,-10.4 35.1,-10.4 8,0 15.5,1.2 22.3,3.6 6.9,2.4 14.4,7.2 19.5,11.6 5.1,4.4 9.4,10.2 11.2,18.9 v -29.7 h 32.9 v 147 h -32.9 v -26.2 c -3.4,7.6 -5.9,11.8 -12.6,17.2 -5.6,4.6 -11.3,7.7 -18.2,10 -6.8,2.2 -14.2,3.4 -22.1,3.4 z m 8.3,-32.1 c 8,0 15.3,-2 21.9,-6 6.6,-4 11.8,-9.5 15.6,-16.6 3.8,-7 5.7,-14.8 5.7,-23.3 0,-8.5 -1.9,-16.1 -5.7,-23.1 -3.8,-7 -9,-12.6 -15.7,-16.7 -6.6,-4.1 -13.9,-6.1 -21.8,-6.1 -7.9,0 -15.2,1.9 -21.7,5.8 -6.5,3.9 -11.8,9.2 -15.7,16.2 -3.9,6.9 -5.8,14.9 -5.8,24 0,9.1 1.9,17.4 5.8,24.3 3.9,7 9.1,12.3 15.7,16 6.6,3.7 13.8,5.5 21.7,5.5 z"/><path id="path18" d="m 735,282.4 c 0,-13.4 -2.9,-26 -9.2,-37.6 -6.3,-11.6 -14.3,-20.8 -25.6,-27.6 -11.3,-6.8 -23.7,-10.2 -38,-10.2 -14.3,0 -27.5,3.5 -39.1,10.4 -11.6,7 -20.7,16.4 -27.2,28.4 -6.6,12 -9.9,25 -9.9,39.1 0,14.1 3.3,27.2 9.9,39.1 6.6,11.9 15.7,21.3 27.3,28.3 11.6,7 24.7,10.5 39,10.5 11.7,0 22.3,-2.3 32.1,-6.9 9.7,-4.6 17.7,-10.8 24.3,-18.5 6.6,-7.7 10.3,-14.5 12.8,-23.6 l -35.3,0.7 c -1.8,3 -4.6,6.6 -7.5,8.8 -3.3,2.6 -7.2,5 -11.9,6.4 -4.5,1.3 -9.4,2.3 -15.2,2.3 -7.7,0 -14.7,-1.9 -21,-5.7 -6.3,-3.8 -11.3,-9.3 -15,-16.5 -2.4,-4.7 -4,-9.9 -4.8,-15.7 h 113.9 c 0.4,-3.5 0.4,-8.3 0.4,-11.7 z M 622.2,267.3 c 0.9,-3.3 2.1,-6.4 3.7,-9.1 3.9,-7.1 9,-12.3 15.3,-15.8 6.3,-3.5 13.3,-5.2 21,-5.2 6.6,0 12.8,1.4 18.6,4.1 5.8,2.7 10.5,6.4 14.1,11 3.6,4.6 5.6,9.7 6.1,15.1 z"/><path id="path20" d="m 556.1,154.9 c -11.5,0 -20.4,2.8 -26.3,8.2 -5.8,5.4 -8.8,13.1 -8.8,23.2 l -0.2,25.1 H 491.1 V 241 h 29.6 v 117.4 h 34.1 V 241 h 29.6 v -29.6 h -29.6 v -21.2 c 0,-2.8 0.3,-4.5 1,-5.3 1,-1.2 3.5,-1.4 5.7,-1.4 h 22.9 l 0.2,-28.6 z"/><path id="path22" d="m 236.6,362.9 c -17.7,0 -32.5,-3 -44.4,-8.9 -11.9,-5.9 -20.6,-13.7 -26.2,-23.2 -5.6,-9.5 -8.4,-19.7 -8.4,-30.6 h 35.6 c 0,0.9 0.1,1.7 0.1,2.6 0.1,0.9 0.2,1.8 0.4,2.7 0.9,5.2 3.1,9.9 6.8,14.1 3.7,4.2 8.6,7.4 14.7,9.8 6.1,2.4 13.2,3.6 21.3,3.6 9.7,0 17.8,-1.1 24.2,-3.2 6.4,-2.1 11.2,-5.4 14.4,-9.6 3.2,-4.2 4.8,-9.7 4.8,-16.2 0,-5.7 -1.8,-10.5 -5.4,-14.3 -3.6,-3.8 -8.6,-6.9 -15,-9.3 -6.4,-2.4 -14.6,-4.5 -24.4,-6.3 -13.7,-2.9 -25.7,-6.3 -36,-10.3 -10.2,-4 -18.9,-10 -26,-17.9 -7.1,-7.9 -10.6,-18.1 -10.6,-30.6 0,-10.9 2.6,-20.5 7.9,-28.8 5.2,-8.3 13.3,-14.9 24.2,-19.7 10.9,-4.8 24.5,-7.2 40.8,-7.2 16.3,0 29.2,2.4 40.2,7.2 11,4.8 19.2,11.6 24.7,20.4 5.5,8.8 8.3,19 8.3,30.8 H 273 c 0,-5.2 -1.4,-9.9 -4.1,-13.9 -2.7,-4.1 -6.9,-7.3 -12.6,-9.6 -5.7,-2.4 -12.8,-3.6 -21.4,-3.6 -9.2,0 -16.6,1.1 -22.1,3.4 -5.5,2.3 -9.3,5.3 -11.4,8.9 -2.1,3.7 -3.2,7.8 -3.2,12.4 0,5.3 1.8,9.9 5.4,13.5 3.6,3.7 8.9,6.7 15.9,9.1 7,2.4 16.2,4.6 27.5,6.4 13.4,2.4 25.2,5.8 35.3,10.2 10.1,4.4 18.2,10.7 24.4,18.8 6.2,8.1 9.3,18.3 9.3,30.6 0,12.3 -3.2,23 -9.7,31.9 -6.5,8.9 -15.7,15.6 -27.6,20.2 -12.1,4.3 -26.1,6.6 -42.1,6.6 z"/></g></g><path id="path28" d="m 890.2,362.9 c -17.7,0 -32.5,-3 -44.4,-8.9 -11.9,-5.9 -20.6,-13.7 -26.2,-23.2 -5.6,-9.5 -8.4,-19.7 -8.4,-30.6 h 35.6 c 0,0.9 0,1.7 0.1,2.6 0.1,0.9 0.2,1.8 0.4,2.7 0.9,5.2 3.1,9.9 6.8,14.1 3.7,4.2 8.6,7.4 14.7,9.8 6.1,2.4 13.2,3.6 21.3,3.6 9.7,0 17.8,-1.1 24.2,-3.2 6.4,-2.1 11.2,-5.4 14.4,-9.6 3.2,-4.2 4.8,-9.7 4.8,-16.2 0,-5.7 -1.8,-10.5 -5.4,-14.3 -3.6,-3.8 -8.6,-6.9 -15,-9.3 -6.4,-2.4 -14.6,-4.5 -24.4,-6.3 -13.7,-2.9 -25.7,-6.3 -36,-10.3 -10.2,-4 -18.9,-10 -26,-17.9 -7.1,-7.9 -10.6,-18.1 -10.6,-30.6 0,-10.9 2.6,-20.5 7.9,-28.8 5.2,-8.3 13.3,-14.9 24.2,-19.7 10.9,-4.8 24.5,-7.2 40.8,-7.2 16.3,0 29.2,2.4 40.2,7.2 11,4.8 19.2,11.6 24.7,20.4 5.5,8.8 8.3,19 8.3,30.8 h -35.6 c 0,-5.2 -1.4,-9.9 -4.1,-13.9 -2.7,-4.1 -6.9,-7.3 -12.6,-9.6 -5.7,-2.4 -12.8,-3.6 -21.4,-3.6 -9.2,0 -16.6,1.1 -22.1,3.4 -5.5,2.3 -9.3,5.3 -11.4,8.9 -2.2,3.7 -3.2,7.8 -3.2,12.4 0,5.3 1.8,9.9 5.4,13.5 3.6,3.7 8.9,6.7 16,9.1 7.1,2.4 16.2,4.6 27.5,6.4 13.4,2.4 25.2,5.8 35.3,10.2 10.1,4.4 18.2,10.7 24.4,18.8 6.2,8.1 9.3,18.3 9.3,30.6 0,12.3 -3.2,23 -9.7,31.9 -6.5,8.9 -15.7,15.6 -27.6,20.2 -12.3,4.3 -26.2,6.6 -42.2,6.6 z"/></g><g id="Keepaway"><rect id="rect31" width="2115" height="522" y="0" class="st1"/></g></svg>